<?xml version="1.0" encoding="UTF-8"?>
<!DOCTYPE svg PUBLIC "-//W3C//DTD SVG 1.1//EN" "http://www.w3.org/Graphics/SVG/1.1/DTD/svg11.dtd">
<!-- Creator: CorelDRAW 2021.5 -->
<svg xmlns="http://www.w3.org/2000/svg" xml:space="preserve" width="40.5663mm" height="47.6658mm" version="1.1" style="shape-rendering:geometricPrecision; text-rendering:geometricPrecision; image-rendering:optimizeQuality; fill-rule:evenodd; clip-rule:evenodd"
viewBox="0 0 4436.72 5213.19"
 xmlns:xlink="http://www.w3.org/1999/xlink"
 xmlns:xodm="http://www.corel.com/coreldraw/odm/2003">
 <defs>
  <style type="text/css">
   <![CDATA[
    .fil0 {fill:#E0BA48}
    .fil1 {fill:#F7F066}
   ]]>
  </style>
    <clipPath id="id0">
     <path d="M4324.22 2632.91l-1990.06 1105.77 -2009.19 1116.4c-69.66,38.68 -148.48,37.72 -217.16,-2.68 -68.68,-40.41 -107.82,-108.84 -107.82,-188.53l0 -2222.17 0 -2222.15c0,-79.69 39.13,-148.12 107.82,-188.53 68.68,-40.4 147.51,-41.36 217.16,-2.68l2009.19 1116.4 1990.06 1105.77c71.31,39.62 112.5,109.61 112.5,191.19 0,81.6 -41.19,151.59 -112.5,191.21z"/>
    </clipPath>
 </defs>
 <g id="arrow">
  <metadata id="CorelCorpID_0Corel-Layer"/>
  <path id="shadow" class="fil0" d="M4324.22 2962.67l-1990.06 1105.77 -2009.19 1116.39c-69.66,38.71 -148.48,37.74 -217.16,-2.67 -68.68,-40.41 -107.82,-108.84 -107.82,-188.53l0 -2222.16 0 -2222.16c0,-79.69 39.13,-148.12 107.82,-188.53 68.68,-40.41 147.51,-41.37 217.16,-2.67l2009.19 1116.39 1912.3 1062.56 0 -113.57 189.89 0 0 334.8c0.24,4.35 0.37,8.75 0.37,13.18 0,4.43 -0.13,8.83 -0.37,13.18l0 0.16 -0.01 0c-4.24,75.85 -44.72,140.41 -112.11,177.86z"/>
  <path id="arrow_0" class="fil1" d="M4324.22 2632.91l-1990.06 1105.77 -2009.19 1116.39c-69.66,38.71 -148.48,37.74 -217.16,-2.67 -68.68,-40.41 -107.82,-108.84 -107.82,-188.53l0 -2222.16 0 -2222.16c0,-79.69 39.13,-148.12 107.82,-188.53 68.68,-40.41 147.51,-41.37 217.16,-2.67l2009.19 1116.39 1990.06 1105.77c71.31,39.62 112.5,109.62 112.5,191.2 0,81.58 -41.19,151.58 -112.5,191.2z"/>
  <g id="_2406378633328">
   <g style="clip-path:url(#id0)">
    <image x="-0" y="0" width="4436.72" height="4883.42" xlink:href="arrow_Images\arrow_ImgID1.png"/>
   </g>
  </g>
 </g>
</svg>
