<?xml version="1.0" encoding="UTF-8"?>
<!DOCTYPE svg PUBLIC "-//W3C//DTD SVG 1.1//EN" "http://www.w3.org/Graphics/SVG/1.1/DTD/svg11.dtd">
<!-- Creator: CorelDRAW 2021.5 -->
<svg xmlns="http://www.w3.org/2000/svg" xml:space="preserve" width="448.059mm" height="202.927mm" version="1.1" style="shape-rendering:geometricPrecision; text-rendering:geometricPrecision; image-rendering:optimizeQuality; fill-rule:evenodd; clip-rule:evenodd"
viewBox="0 0 36462.5 16513.95"
 xmlns:xlink="http://www.w3.org/1999/xlink"
 xmlns:xodm="http://www.corel.com/coreldraw/odm/2003">
 <defs>
  <style type="text/css">
   <![CDATA[
    .fil10 {fill:#1A1E30}
    .fil6 {fill:#294524}
    .fil9 {fill:#3E434F}
    .fil7 {fill:#42652C}
    .fil5 {fill:#56352F}
    .fil8 {fill:#8D5D3E}
    .fil4 {fill:#8D5D3E}
    .fil3 {fill:#BF8B51}
    .fil11 {fill:#E7ECE9}
    .fil0 {fill:#F0FEFE}
    .fil2 {fill:#E7ECE9;fill-rule:nonzero}
    .fil1 {fill:#E9FBFE;fill-rule:nonzero}
   ]]>
  </style>
 </defs>
 <g id="wall">
  <metadata id="CorelCorpID_0Corel-Layer"/>
  <rect class="fil0" x="9174.02" y="1631.4" width="26457.86" height="14882.55"/>
  <path id="rect120542-6-1-0-4" class="fil1" d="M31812.55 7299.73l-834.82 0c-72.15,0 -130.21,-58.07 -130.21,-130.22l0 -428.71c0,-72.16 58.06,-130.22 130.21,-130.22l834.82 0 0 689.16zm-3163.26 -689.16c72.16,0 130.22,58.06 130.22,130.22l0 428.71c0,72.15 -58.06,130.22 -130.22,130.22l-1531.66 0c-72.16,0 -130.22,-58.07 -130.22,-130.22l0 -428.71c0,-72.16 58.06,-130.22 130.22,-130.22l1531.66 0zm-3859.93 0c72.16,0 130.22,58.06 130.22,130.22l0 428.71c0,72.15 -58.06,130.22 -130.22,130.22l-1531.66 0c-72.16,0 -130.22,-58.07 -130.22,-130.22l-0.02 -428.71c0,-72.16 58.06,-130.22 130.21,-130.22l1531.69 0zm7023.19 1386.2l-0.03 -428.88 0.03 -2.69 0 431.58zm-2198.22 -559.1c72.16,0 130.22,58.07 130.22,130.22l0 428.88c0,72.15 -58.06,130.22 -130.22,130.22l-1531.66 0c-72.16,0 -130.22,-58.07 -130.22,-130.22l0 -428.88c0,-72.15 58.06,-130.22 130.22,-130.22l1531.66 0zm-3859.96 0c72.16,0 130.22,58.07 130.22,130.22l0 428.88c0,72.15 -58.06,130.22 -130.22,130.22l-1531.67 0c-72.15,0 -130.35,-58.07 -130.35,-130.22l0 -428.88c0,-72.15 58.2,-130.22 130.35,-130.22l1531.67 0zm6058.18 1516.42l-834.82 0c-72.15,0 -130.21,-58.06 -130.21,-130.22l0 -428.87c0,-72.16 58.06,-130.22 130.21,-130.22l834.82 0 0 689.32zm-1233.21 -689.32c72.16,0 130.22,58.06 130.22,130.22l0 428.87c0,72.16 -58.06,130.22 -130.22,130.22l-1531.66 0c-72.16,0 -130.22,-58.06 -130.22,-130.22l0 -428.87c0,-72.16 58.06,-130.22 130.22,-130.22l1531.66 0zm-1930.05 0c72.16,0 130.22,58.06 130.22,130.22l0 428.87c0,72.16 -58.06,130.22 -130.22,130.22l-1531.66 0c-72.16,0 -130.22,-58.06 -130.22,-130.22l0 -428.87c0,-72.16 58.06,-130.22 130.22,-130.22l1531.66 0zm-1929.88 0c72.16,0 130.22,58.06 130.22,130.22l0 428.87c0,72.16 -58.06,130.22 -130.22,130.22l-1531.66 0c-72.16,0 -130.36,-58.06 -130.36,-130.22l-0.03 -428.87c0,-72.16 58.21,-130.22 130.36,-130.22l1531.69 0zm-1930.05 0c72.16,0 130.22,58.06 130.22,130.22l0 428.87c0,72.16 -58.06,130.22 -130.22,130.22l-1531.66 0c-72.16,0 -130.22,-58.06 -130.22,-130.22l-0.02 -428.87c0,-72.16 58.06,-130.22 130.21,-130.22l1531.69 0zm7023.19 1386.2l-0.03 -428.74 0.03 -2.69 0 431.44zm-2198.22 -558.97c72.16,0 130.22,58.07 130.22,130.22l0 428.71c0,72.16 -58.06,130.22 -130.22,130.22l-1531.66 0.03c-72.16,0 -130.22,-58.07 -130.22,-130.22l0 -428.74c0,-72.15 58.06,-130.22 130.22,-130.22l1531.66 0zm-1930.04 0c72.15,0 130.36,58.07 130.36,130.22l0 428.71c0,72.16 -58.21,130.22 -130.36,130.22l-1531.67 0.03c-72.15,0 -130.22,-58.07 -130.22,-130.22l0 -428.74c0,-72.15 58.07,-130.22 130.22,-130.22l1531.67 0zm-1929.91 0c72.16,0 130.22,58.07 130.22,130.22l0 428.71c0,72.16 -58.06,130.22 -130.22,130.22l-1531.67 0.03c-72.15,0 -130.35,-58.07 -130.35,-130.22l0 -428.74c0,-72.15 58.2,-130.22 130.35,-130.22l1531.67 0zm6058.18 1516.42l-834.82 0c-72.15,0 -130.21,-58.06 -130.21,-130.22l0 -428.87c0,-72.16 58.06,-130.22 130.21,-130.22l834.82 0 0 689.32zm-3163.26 -689.32c72.16,0 130.22,58.06 130.22,130.22l0 428.87c0,72.16 -58.06,130.22 -130.22,130.22l-1531.66 0c-72.16,0 -130.22,-58.06 -130.22,-130.22l0 -428.87c0,-72.16 58.06,-130.22 130.22,-130.22l1531.66 0zm-1929.88 0c72.16,0 130.22,58.06 130.22,130.22l0 428.87c0,72.16 -58.06,130.22 -130.22,130.22l-1531.66 0c-72.16,0 -130.36,-58.06 -130.36,-130.22l0 -428.87c0,-72.16 58.2,-130.22 130.36,-130.22l1531.66 0zm-1930.05 0c72.16,0 130.22,58.06 130.22,130.22l0 428.87c0,72.16 -58.06,130.22 -130.22,130.22l-1531.66 0c-72.16,0 -130.22,-58.06 -130.22,-130.22l0 -428.87c0,-72.16 58.06,-130.22 130.22,-130.22l1531.66 0zm6755.02 827.13c72.16,0 130.22,58.06 130.22,130.22l0 428.87c0,72.16 -58.06,130.22 -130.22,130.22l-1531.66 0c-72.16,0 -130.22,-58.06 -130.22,-130.22l0 -428.87c0,-72.16 58.06,-130.22 130.22,-130.22l1531.66 0zm-1930.05 0c72.16,0 130.22,58.06 130.22,130.22l0 428.87c0,72.16 -58.06,130.22 -130.22,130.22l-1531.66 0c-72.16,0 -130.22,-58.06 -130.22,-130.22l0 -428.87c0,-72.16 58.06,-130.22 130.22,-130.22l1531.66 0zm-3859.96 0c72.16,0 130.22,58.06 130.22,130.22l0 428.87c0,72.16 -58.06,130.22 -130.22,130.22l-1531.67 0c-72.15,0 -130.35,-58.06 -130.35,-130.22l0 -428.87c0,-72.16 58.2,-130.22 130.35,-130.22l1531.67 0zm6058.18 1516.4l-834.82 0.02c-72.15,0 -130.21,-58.07 -130.21,-130.22l0 -428.72c0,-72.15 58.06,-130.21 130.21,-130.21l834.82 -0.02 0 689.16zm-1233.21 -689.17c72.16,0 130.22,58.06 130.22,130.22l0 428.71c0,72.16 -58.06,130.22 -130.22,130.22l-1531.66 0.03c-72.16,0 -130.22,-58.07 -130.22,-130.22l0 -428.72c0,-72.15 58.06,-130.21 130.22,-130.21l1531.66 -0.03zm-1930.05 0c72.16,0 130.22,58.06 130.22,130.22l0 428.71c0,72.16 -58.06,130.22 -130.22,130.22l-1531.66 0.03c-72.16,0 -130.22,-58.07 -130.22,-130.22l0 -428.72c0,-72.15 58.06,-130.21 130.22,-130.21l1531.66 -0.03zm-1929.88 0c72.16,0 130.22,58.06 130.22,130.22l0 428.71c0,72.16 -58.06,130.22 -130.22,130.22l-1531.66 0.03c-72.16,0 -130.36,-58.07 -130.36,-130.22l0 -428.72c0,-72.15 58.2,-130.21 130.36,-130.21l1531.66 -0.03zm-1930.05 0c72.16,0 130.22,58.06 130.22,130.22l0 428.71c0,72.16 -58.06,130.22 -130.22,130.22l-1531.66 0.03c-72.16,0 -130.22,-58.07 -130.22,-130.22l0 -428.72c0,-72.15 58.06,-130.21 130.22,-130.21l1531.66 -0.03zm4824.97 827.1c72.16,0 130.22,58.06 130.22,130.22l0 428.87c0,72.16 -58.06,130.22 -130.22,130.22l-1531.66 0c-72.16,0 -130.22,-58.06 -130.22,-130.22l0 -428.87c0,-72.16 58.06,-130.22 130.22,-130.22l1531.66 0zm-3859.96 0c72.16,0 130.22,58.06 130.22,130.22l0 428.87c0,72.16 -58.06,130.22 -130.22,130.22l-1531.67 0c-72.15,0 -130.35,-58.06 -130.35,-130.22l0 -428.87c0,-72.16 58.2,-130.22 130.35,-130.22l1531.67 0zm-1930.05 0c72.16,0 130.22,58.06 130.22,130.22l0 428.87c0,72.16 -58.06,130.22 -130.22,130.22l-1531.66 0c-72.16,0 -130.22,-58.06 -130.22,-130.22l0 -7.69c0,76.37 61.54,137.77 137.91,137.77l689.18 0 0 -689.18 834.79 0zm-1523.97 0c-76.37,0 -137.91,61.4 -137.91,137.77l0 -7.55c0,-72.16 58.06,-130.22 130.22,-130.22l7.69 0zm12139.1 827.09c72.15,0 130.22,58.07 130.22,130.22l0 428.88c0,72.15 -58.07,130.22 -130.22,130.22l-1531.67 0c-72.15,0 -130.22,-58.07 -130.22,-130.22l0 -428.88c0,-72.15 58.07,-130.22 130.22,-130.22l1531.67 0zm-1930.05 0c72.16,0 130.22,58.07 130.22,130.22l0 428.88c0,72.15 -58.06,130.22 -130.22,130.22l-1531.67 0c-72.15,0 -130.21,-58.07 -130.21,-130.22l0 -428.88c0,-72.15 58.06,-130.22 130.21,-130.22l1531.67 0zm-7720.04 0c72.16,0 130.22,58.07 130.22,130.22l0 428.88c0,72.15 -58.06,130.22 -130.22,130.22l-1531.66 0c-72.16,0 -130.22,-58.07 -130.22,-130.22l0 -428.88c0,-72.15 58.06,-130.22 130.22,-130.22l1531.66 0zm8685.08 827.26c72.16,0 130.22,58.06 130.22,130.22l0 428.71c0,72.16 -58.06,130.22 -130.22,130.22l-1531.66 0c-72.16,0 -130.22,-58.06 -130.22,-130.22l-0.03 -428.71c0,-72.16 58.07,-130.22 130.22,-130.22l1531.69 0zm-5790.15 0c72.15,0 130.36,58.06 130.36,130.22l0 428.71c0,72.16 -58.21,130.22 -130.36,130.22l-1531.67 0c-72.15,0 -130.22,-58.06 -130.22,-130.22l0 -428.71c0,-72.16 58.07,-130.22 130.22,-130.22l1531.67 0zm-1929.91 0c72.16,0 130.22,58.06 130.22,130.22l0 428.71c0,72.16 -58.06,130.22 -130.22,130.22l-1531.67 0c-72.15,0 -130.35,-58.06 -130.35,-130.22l0 -428.71c0,-72.16 58.2,-130.22 130.35,-130.22l1531.67 0zm-1930.05 0c72.16,0 130.22,58.06 130.22,130.22l0 428.71c0,72.16 -58.06,130.22 -130.22,130.22l-834.79 0 0 -689.18 834.79 0.02zm-1523.97 0c-76.37,0 -137.91,61.4 -137.91,137.77l0 -7.55c0,-72.16 58.06,-130.22 130.22,-130.22l7.69 0zm-137.91 551.38c0,76.37 61.54,137.77 137.91,137.77l-7.69 0c-72.16,0 -130.22,-58.06 -130.22,-130.22l0 -7.55zm12277.01 275.72c72.15,0 130.22,58.06 130.22,130.22l0 428.87c0,72.16 -58.07,130.22 -130.22,130.22l-1531.67 0c-72.15,0 -130.22,-58.06 -130.22,-130.22l0 -428.87c0,-72.16 58.07,-130.22 130.22,-130.22l1531.67 0zm-1930.05 0c72.16,0 130.22,58.06 130.22,130.22l0 428.87c0,72.16 -58.06,130.22 -130.22,130.22l-1531.67 0c-72.15,0 -130.21,-58.06 -130.21,-130.22l0 -428.87c0,-72.16 58.06,-130.22 130.21,-130.22l1531.67 0zm-7720.04 0c72.16,0 130.22,58.06 130.22,130.22l0 428.87c0,72.16 -58.06,130.22 -130.22,130.22l-1531.66 0c-72.16,0 -130.22,-58.06 -130.22,-130.22l-0.02 -428.87c0,-72.16 58.06,-130.22 130.21,-130.22l1531.69 0zm8685.08 827.09c72.16,0 130.22,58.2 130.22,130.36l0 428.71c0,72.16 -58.06,130.22 -130.22,130.22l-1531.66 0.02c-72.16,0 -130.22,-58.06 -130.22,-130.21l0 -428.72c0,-72.15 58.06,-130.35 130.22,-130.35l1531.66 -0.03zm-1930.05 0c72.16,0 130.22,58.2 130.22,130.36l0 428.71c0,72.16 -58.06,130.22 -130.22,130.22l-1531.66 0.02c-72.16,0 -130.22,-58.06 -130.22,-130.21l0 -428.72c0,-72.15 58.06,-130.35 130.22,-130.35l1531.66 -0.03z"/>
  <path id="rect120542-6-1-0-4-1" class="fil2" d="M22859.34 6610.76c72.15,0 130.22,58.07 130.22,130.22l0 428.72c0,72.15 -58.07,130.21 -130.22,130.21l-1531.67 0.03c-72.15,0 -130.21,-58.06 -130.21,-130.22l-0.03 -428.74c0,-72.15 58.1,-130.22 130.25,-130.22l1531.67 0zm-1930.05 0c72.16,0 130.22,58.07 130.22,130.22l0 428.72c0,72.15 -58.06,130.21 -130.22,130.21l-1531.66 0.03c-72.16,0 -130.22,-58.06 -130.22,-130.22l-0.03 -428.74c0,-72.15 58.1,-130.22 130.25,-130.22l1531.66 0zm-3860.1 0c72.15,0 130.21,58.07 130.21,130.22l0 428.72c0,72.15 -58.06,130.21 -130.21,130.21l-1531.67 0.03c-72.15,0 -130.22,-58.06 -130.22,-130.22l0 -428.74c0,-72.15 58.07,-130.22 130.22,-130.22l1531.67 0zm-3859.94 0c72.16,0 130.22,58.07 130.22,130.22l0 428.72c0,72.15 -58.06,130.21 -130.22,130.21l-1531.69 0.03c-72.16,0 -130.22,-58.06 -130.22,-130.22l0 -428.74c0,-72.15 58.06,-130.22 130.22,-130.22l1531.69 0zm8685.05 827.1c72.15,0 130.22,58.06 130.22,130.22l0 428.87c0,72.16 -58.07,130.22 -130.22,130.22l-1531.67 0c-72.15,0 -130.22,-58.06 -130.22,-130.22l0 -428.87c0,-72.16 58.07,-130.22 130.22,-130.22l1531.67 0zm-3860.07 0c72.15,0 130.22,58.06 130.22,130.22l0 428.87c0,72.16 -58.07,130.22 -130.22,130.22l-1531.69 0c-72.16,0 -130.22,-58.06 -130.22,-130.22l0 -428.87c0,-72.16 58.06,-130.22 130.22,-130.22l1531.69 0zm-3859.97 0c72.16,0 130.22,58.06 130.22,130.22l0 428.87c0,72.16 -58.06,130.22 -130.22,130.22l-1531.66 0c-72.16,0 -130.36,-58.06 -130.36,-130.22l-0.03 -428.87c0,-72.16 58.21,-130.22 130.36,-130.22l1531.69 0zm8685.08 827.1c72.15,0 130.22,58.09 130.22,130.25l0 428.87c0,72.16 -58.07,130.22 -130.22,130.22l-1531.67 -0.02c-72.15,0 -130.21,-58.06 -130.21,-130.22l-0.03 -428.85c0,-72.16 58.06,-130.22 130.22,-130.22l1531.69 -0.02zm-1930.05 0c72.16,0 130.22,58.06 130.22,130.21l0 428.88c0,72.16 -58.06,130.22 -130.22,130.22l-1531.66 0c-72.16,0 -130.22,-58.06 -130.22,-130.22l-0.03 -428.85c0,-72.16 58.07,-130.22 130.22,-130.22l1531.69 -0.02zm-1930.05 0c72.16,0 130.22,58.06 130.22,130.21l0 428.88c0,72.16 -58.06,130.22 -130.22,130.22l-1531.66 0c-72.16,0 -130.22,-58.06 -130.22,-130.22l0 -428.85c0,-72.16 58.06,-130.22 130.22,-130.22l1531.66 -0.02zm-1930.04 0c72.15,0 130.21,58.06 130.21,130.21l0 428.88c0,72.16 -58.06,130.22 -130.21,130.22l-1531.67 0c-72.15,0 -130.22,-58.06 -130.22,-130.22l0 -428.85c0,-72.16 58.07,-130.22 130.22,-130.22l1531.67 -0.02zm-1929.91 0c72.15,0 130.22,58.06 130.22,130.21l0 428.88c0,72.16 -58.07,130.22 -130.22,130.22l-1531.67 0c-72.15,0 -130.35,-58.06 -130.35,-130.22l0 -428.85c0,-72.16 58.2,-130.22 130.35,-130.22l1531.67 -0.02zm-1930.03 0c72.16,0 130.22,58.06 130.22,130.21l0 428.88c0,72.16 -58.06,130.22 -130.22,130.22l-1531.69 0c-72.16,0 -130.22,-58.06 -130.22,-130.22l0 -428.85c0,-72.16 58.06,-130.22 130.22,-130.22l1531.69 -0.02zm8685.05 827.26c72.15,0 130.22,58.07 130.22,130.22l0 428.71c0,72.16 -58.07,130.22 -130.22,130.22l-1531.67 0.03c-72.15,0 -130.22,-58.07 -130.22,-130.22l0 -428.74c0,-72.15 58.07,-130.22 130.22,-130.22l1531.67 0zm-3860.07 0c72.15,0 130.22,58.07 130.22,130.22l0 428.71c0,72.16 -58.07,130.22 -130.22,130.22l-1531.69 0.03c-72.16,0 -130.22,-58.07 -130.22,-130.22l0 -428.74c0,-72.15 58.06,-130.22 130.22,-130.22l1531.69 0zm-1930.05 0c72.15,0 130.36,58.07 130.36,130.22l0 428.71c0,72.16 -58.21,130.22 -130.36,130.22l-1531.69 0.03c-72.16,0 -130.22,-58.07 -130.22,-130.22l0 -428.74c0,-72.15 58.06,-130.22 130.22,-130.22l1531.69 0zm-1929.91 0c72.16,0 130.22,58.07 130.22,130.22l0 428.71c0,72.16 -58.06,130.22 -130.22,130.22l-1531.66 0.03c-72.16,0 -130.36,-58.07 -130.36,-130.22l-0.03 -428.74c0,-72.15 58.21,-130.22 130.36,-130.22l1531.69 0zm8685.08 827.1c72.15,0 130.22,58.06 130.22,130.22l0 428.87c0,72.16 -58.07,130.22 -130.22,130.22l-1531.67 0c-72.15,0 -130.21,-58.06 -130.21,-130.22l0 -428.87c0,-72.16 58.06,-130.22 130.21,-130.22l1531.67 0zm-1930.05 0c72.16,0 130.22,58.06 130.22,130.22l0 428.87c0,72.16 -58.06,130.22 -130.22,130.22l-1531.66 0c-72.16,0 -130.22,-58.06 -130.22,-130.22l0 -428.87c0,-72.16 58.06,-130.22 130.22,-130.22l1531.66 0zm-3860.1 0c72.15,0 130.21,58.06 130.21,130.22l0 428.87c0,72.16 -58.06,130.22 -130.21,130.22l-1531.67 0c-72.15,0 -130.22,-58.06 -130.22,-130.22l0 -428.87c0,-72.16 58.07,-130.22 130.22,-130.22l1531.67 0zm-1929.91 0c72.15,0 130.22,58.06 130.22,130.22l0 428.87c0,72.16 -58.07,130.22 -130.22,130.22l-1531.67 0c-72.15,0 -130.35,-58.06 -130.35,-130.22l0 -428.87c0,-72.16 58.2,-130.22 130.35,-130.22l1531.67 0zm-1930.03 0c72.16,0 130.22,58.06 130.22,130.22l0 428.87c0,72.16 -58.06,130.22 -130.22,130.22l-1531.69 0c-72.16,0 -130.22,-58.06 -130.22,-130.22l0 -428.87c0,-72.16 58.06,-130.22 130.22,-130.22l1531.69 0zm8685.05 827.09c72.15,0 130.22,58.07 130.22,130.22l0 428.88c0,72.15 -58.07,130.22 -130.22,130.22l-1531.67 0c-72.15,0 -130.22,-58.07 -130.22,-130.22l0 -428.88c0,-72.15 58.07,-130.22 130.22,-130.22l1531.67 0zm-1930.05 0c72.16,0 130.22,58.07 130.22,130.22l0 428.88c0,72.15 -58.06,130.22 -130.22,130.22l-1531.66 0c-72.16,0 -130.22,-58.07 -130.22,-130.22l0 -428.88c0,-72.15 58.06,-130.22 130.22,-130.22l1531.66 0zm-1930.02 0c72.15,0 130.22,58.07 130.22,130.22l0 428.88c0,72.15 -58.07,130.22 -130.22,130.22l-1531.69 0c-72.16,0 -130.22,-58.07 -130.22,-130.22l0 -428.88c0,-72.15 58.06,-130.22 130.22,-130.22l1531.69 0zm-3859.97 0c72.16,0 130.22,58.07 130.22,130.22l0 428.88c0,72.15 -58.06,130.22 -130.22,130.22l-1531.66 0c-72.16,0 -130.36,-58.07 -130.36,-130.22l0 -428.88c0,-72.15 58.2,-130.22 130.36,-130.22l1531.66 0zm6755.02 827.24c72.16,0 130.22,58.06 130.22,130.22l0 428.71c0,72.16 -58.06,130.22 -130.22,130.22l-1531.66 0.02c-72.16,0 -130.22,-58.06 -130.22,-130.22l0 -428.71c0,-72.15 58.06,-130.22 130.22,-130.22l1531.66 -0.02zm-1930.05 0c72.16,0 130.22,58.06 130.22,130.22l0 428.71c0,72.16 -58.06,130.22 -130.22,130.22l-1531.66 0.02c-72.16,0 -130.22,-58.06 -130.22,-130.22l0 -428.71c0,-72.15 58.06,-130.22 130.22,-130.22l1531.66 -0.02zm-1930.04 0c72.15,0 130.21,58.06 130.21,130.22l0 428.71c0,72.16 -58.06,130.22 -130.21,130.22l-1531.67 0.02c-72.15,0 -130.22,-58.06 -130.22,-130.22l0 -428.71c0,-72.15 58.07,-130.22 130.22,-130.22l1531.67 -0.02zm-1929.91 0c72.15,0 130.22,58.06 130.22,130.22l0 428.71c0,72.16 -58.07,130.22 -130.22,130.22l-1531.67 0.02c-72.15,0 -130.35,-58.06 -130.35,-130.22l0 -428.71c0,-72.15 58.2,-130.22 130.35,-130.22l1531.67 -0.02zm-1930.03 0c72.16,0 130.22,58.06 130.22,130.22l0 428.71c0,72.16 -58.06,130.22 -130.22,130.22l-1531.69 0.02c-72.16,0 -130.22,-58.06 -130.22,-130.22l0 -428.71c0,-72.15 58.06,-130.22 130.22,-130.22l1531.69 -0.02zm9780.31 827.13l0 689.18 -689.19 -0.02c-76.37,0 -137.91,-61.4 -137.91,-137.77l0 -413.63c0,-76.37 61.54,-137.78 137.91,-137.78l689.19 0.03zm-1095.26 0c72.15,0 130.22,58.06 130.22,130.22l0 428.87c0,72.16 -58.07,130.22 -130.22,130.22l-1531.67 0c-72.15,0 -130.22,-58.06 -130.22,-130.22l0 -428.87c0,-72.16 58.07,-130.22 130.22,-130.22l1531.67 0zm-3860.07 0c72.15,0 130.22,58.06 130.22,130.22l0 428.87c0,72.16 -58.07,130.22 -130.22,130.22l-1531.69 0c-72.16,0 -130.22,-58.06 -130.22,-130.22l0 -428.87c0,-72.16 58.06,-130.22 130.22,-130.22l1531.69 0zm-3859.97 0c72.16,0 130.22,58.06 130.22,130.22l0 428.87c0,72.16 -58.06,130.22 -130.22,130.22l-1531.66 0c-72.16,0 -130.36,-58.06 -130.36,-130.22l0 -428.87c0,-72.16 58.2,-130.22 130.36,-130.22l1531.66 0zm-1930.05 0c72.16,0 130.22,58.06 130.22,130.22l0 428.87c0,72.16 -58.06,130.22 -130.22,130.22l-1531.66 0c-72.16,0 -130.22,-58.06 -130.22,-130.22l0 -7.69c0,76.37 61.54,137.77 137.91,137.77l689.19 -0.02 0 -689.19 834.78 0.03zm-1523.97 0c-76.37,0 -137.91,61.4 -137.91,137.77l0 -7.55c0,-72.16 58.06,-130.22 130.22,-130.22l7.69 0zm12139.1 827.09c72.15,0 130.22,58.07 130.22,130.22l0 428.88c0,72.15 -58.07,130.22 -130.22,130.22l-1531.67 0c-72.15,0 -130.21,-58.07 -130.21,-130.22l0 -428.88c0,-72.15 58.06,-130.22 130.21,-130.22l1531.67 0zm-1930.05 0c72.16,0 130.22,58.07 130.22,130.22l0 428.88c0,72.15 -58.06,130.22 -130.22,130.22l-1531.66 0c-72.16,0 -130.22,-58.07 -130.22,-130.22l0 -428.88c0,-72.15 58.06,-130.22 130.22,-130.22l1531.66 0zm-7720.04 0c72.16,0 130.22,58.07 130.22,130.22l0 428.88c0,72.15 -58.06,130.22 -130.22,130.22l-1531.69 0c-72.16,0 -130.22,-58.07 -130.22,-130.22l0 -428.88c0,-72.15 58.06,-130.22 130.22,-130.22l1531.69 0zm9780.31 827.24l0 689.18 -689.19 0c-76.37,0 -137.91,-61.4 -137.91,-137.77l0 -413.63c0,-76.37 61.54,-137.77 137.91,-137.77l689.19 0zm-1095.26 0c72.15,0 130.22,58.06 130.22,130.22l0 428.71c0,72.16 -58.07,130.22 -130.22,130.22l-1531.67 0.02c-72.15,0 -130.22,-58.06 -130.22,-130.22l0 -428.71c0,-72.16 58.07,-130.22 130.22,-130.22l1531.67 -0.02zm-5790.12 0c72.15,0 130.36,58.06 130.36,130.22l0 428.71c0,72.16 -58.21,130.22 -130.36,130.22l-1531.69 0.02c-72.16,0 -130.22,-58.06 -130.22,-130.22l0 -428.71c0,-72.16 58.06,-130.22 130.22,-130.22l1531.69 -0.02zm-1929.91 0c72.16,0 130.22,58.06 130.22,130.22l0 428.71c0,72.16 -58.06,130.22 -130.22,130.22l-1531.66 0.02c-72.16,0 -130.36,-58.06 -130.36,-130.22l0 -428.71c0,-72.16 58.2,-130.22 130.36,-130.22l1531.66 -0.02zm-1930.05 0c72.16,0 130.22,58.06 130.22,130.22l0 428.71c0,72.16 -58.06,130.22 -130.22,130.22l-834.78 0.02 0 -689.18 834.78 0zm-1523.97 0c-76.37,0 -137.91,61.4 -137.91,137.77l0 -7.55c0,-72.16 58.06,-130.22 130.22,-130.22l7.69 0zm-137.91 551.41c0,76.37 61.54,137.77 137.91,137.77l-7.69 0c-72.16,0 -130.22,-58.06 -130.22,-130.22l0 -7.55zm12277.01 275.69c72.15,0 130.22,58.07 130.22,130.22l0 428.88c0,72.15 -58.07,130.22 -130.22,130.22l-1531.67 0c-72.15,0 -130.21,-58.07 -130.21,-130.22l0 -428.88c0,-72.15 58.06,-130.22 130.21,-130.22l1531.67 0zm-1930.05 0c72.16,0 130.22,58.07 130.22,130.22l0 428.88c0,72.15 -58.06,130.22 -130.22,130.22l-1531.66 0c-72.16,0 -130.22,-58.07 -130.22,-130.22l0 -428.88c0,-72.15 58.06,-130.22 130.22,-130.22l1531.66 0zm-7720.04 0c72.16,0 130.22,58.07 130.22,130.22l0 428.88c0,72.15 -58.06,130.22 -130.22,130.22l-1531.69 0c-72.16,0 -130.22,-58.07 -130.22,-130.22l0 -428.88c0,-72.15 58.06,-130.22 130.22,-130.22l1531.69 0zm8685.05 827.1c72.15,0 130.22,58.2 130.22,130.36l0 428.71c0,72.15 -58.07,130.22 -130.22,130.22l-1531.67 0.02c-72.15,0 -130.22,-58.06 -130.22,-130.22l0 -428.71c0,-72.16 58.07,-130.36 130.22,-130.36l1531.67 -0.02zm-1930.05 0c72.16,0 130.22,58.2 130.22,130.36l0 428.71c0,72.15 -58.06,130.22 -130.22,130.22l-1531.66 0.02c-72.16,0 -130.22,-58.06 -130.22,-130.22l0 -428.71c0,-72.16 58.06,-130.36 130.22,-130.36l1531.66 -0.02z"/>
  <path id="rect120542-6-1-0-4-1_0" class="fil1" d="M23249.47 5838.45c-72.15,0 -130.22,-58.07 -130.22,-130.22l0 -428.72c0,-72.15 58.07,-130.21 130.22,-130.21l237.15 -0.01 0 689.16 -237.15 0zm1930.05 0c-72.16,0 -130.22,-58.07 -130.22,-130.22l0 -428.72c0,-72.15 58.06,-130.21 130.22,-130.21l1531.66 -0.03c72.16,0 130.22,58.06 130.22,130.22l0.03 428.74c0,72.15 -58.1,130.22 -130.25,130.22l-1531.66 0zm3860.1 0c-72.15,0 -130.21,-58.07 -130.21,-130.22l0 -428.72c0,-72.15 58.06,-130.21 130.21,-130.21l1531.67 -0.03c72.15,0 130.22,58.06 130.22,130.22l0 428.74c0,72.15 -58.07,130.22 -130.22,130.22l-1531.67 0zm3859.94 0c-72.16,0 -130.22,-58.07 -130.22,-130.22l0 -428.72c0,-72.15 58.06,-130.21 130.22,-130.21l1531.69 -0.03c72.16,0 130.22,58.06 130.22,130.22l0 428.74c0,72.15 -58.06,130.22 -130.22,130.22l-1531.69 0zm-8685.05 -827.1c-72.15,0 -130.22,-58.06 -130.22,-130.22l0 -428.87c0,-72.16 58.07,-130.22 130.22,-130.22l1531.67 0c72.15,0 130.22,58.06 130.22,130.22l0 428.87c0,72.16 -58.07,130.22 -130.22,130.22l-1531.67 0zm3860.07 0c-72.15,0 -130.22,-58.06 -130.22,-130.22l0 -428.87c0,-72.16 58.07,-130.22 130.22,-130.22l1531.69 0c72.16,0 130.22,58.06 130.22,130.22l0 428.87c0,72.16 -58.06,130.22 -130.22,130.22l-1531.69 0zm3859.97 0c-72.16,0 -130.22,-58.06 -130.22,-130.22l0 -428.87c0,-72.16 58.06,-130.22 130.22,-130.22l1531.66 0c72.16,0 130.36,58.06 130.36,130.22l0.03 428.87c0,72.16 -58.21,130.22 -130.36,130.22l-1531.69 0zm-8685.08 -827.1c-72.15,0 -130.22,-58.09 -130.22,-130.25l0 -428.87c0,-16.21 2.94,-31.71 8.3,-46l1775.49 0c5.36,14.3 8.32,29.81 8.32,46.03l0.03 428.85c0,72.16 -58.06,130.22 -130.22,130.22l-1531.69 0.02zm1930.05 0c-72.16,0 -130.22,-58.06 -130.22,-130.21l0 -428.88c0,-16.22 2.95,-31.73 8.32,-46.03l1775.47 0c5.36,14.3 8.32,29.81 8.32,46.03l0.03 428.85c0,72.16 -58.07,130.22 -130.22,130.22l-1531.69 0.02zm1930.05 0c-72.16,0 -130.22,-58.06 -130.22,-130.21l0 -428.88c0,-16.22 2.95,-31.73 8.32,-46.03l1775.47 0c5.36,14.3 8.32,29.81 8.32,46.03l0 428.85c0,72.16 -58.06,130.22 -130.22,130.22l-1531.66 0.02zm1930.04 0c-72.15,0 -130.21,-58.06 -130.21,-130.21l0 -428.88c0,-16.22 2.95,-31.73 8.32,-46.03l1775.47 0c5.37,14.3 8.32,29.81 8.32,46.03l0 428.85c0,72.16 -58.07,130.22 -130.22,130.22l-1531.67 0.02zm1929.91 0c-72.15,0 -130.22,-58.06 -130.22,-130.21l0 -428.88c0,-16.22 2.95,-31.73 8.32,-46.03l1775.6 0c5.39,14.3 8.33,29.81 8.33,46.03l0 428.85c0,72.16 -58.2,130.22 -130.35,130.22l-1531.67 0.02zm1930.03 0c-72.16,0 -130.22,-58.06 -130.22,-130.21l0 -428.88c0,-16.22 2.95,-31.73 8.32,-46.03l1775.5 0c5.36,14.3 8.32,29.81 8.32,46.03l0 428.85c0,72.16 -58.06,130.22 -130.22,130.22l-1531.69 0.02zm-9650.09 -1654.36c-72.15,0 -130.22,-58.06 -130.22,-130.22l0 -428.87c0,-72.16 58.07,-130.22 130.22,-130.22l1531.67 0c72.15,0 130.21,58.06 130.21,130.22l0 428.87c0,72.16 -58.06,130.22 -130.21,130.22l-1531.67 0zm1930.05 0c-72.16,0 -130.22,-58.06 -130.22,-130.22l0 -428.87c0,-72.16 58.06,-130.22 130.22,-130.22l1531.66 0c72.16,0 130.22,58.06 130.22,130.22l0 428.87c0,72.16 -58.06,130.22 -130.22,130.22l-1531.66 0zm3860.1 0c-72.15,0 -130.21,-58.06 -130.21,-130.22l0 -428.87c0,-72.16 58.06,-130.22 130.21,-130.22l1531.67 0c72.15,0 130.22,58.06 130.22,130.22l0 428.87c0,72.16 -58.07,130.22 -130.22,130.22l-1531.67 0zm1929.91 0c-72.15,0 -130.22,-58.06 -130.22,-130.22l0 -428.87c0,-72.16 58.07,-130.22 130.22,-130.22l1531.67 0c72.15,0 130.35,58.06 130.35,130.22l0 428.87c0,72.16 -58.2,130.22 -130.35,130.22l-1531.67 0zm1930.03 0c-72.16,0 -130.22,-58.06 -130.22,-130.22l0 -428.87c0,-72.16 58.06,-130.22 130.22,-130.22l1531.69 0c72.16,0 130.22,58.06 130.22,130.22l0 428.87c0,72.16 -58.06,130.22 -130.22,130.22l-1531.69 0z"/>
  <path id="rect120542-6-1-0-4-1_1" class="fil1" d="M22859.34 6610.76c72.15,0 130.22,58.07 130.22,130.22l0 428.72c0,72.15 -58.07,130.21 -130.22,130.21l-1531.67 0.03c-72.15,0 -130.21,-58.06 -130.21,-130.22l-0.03 -428.74c0,-72.15 58.1,-130.22 130.25,-130.22l1531.67 0zm-1930.05 0c72.16,0 130.22,58.07 130.22,130.22l0 428.72c0,72.15 -58.06,130.21 -130.22,130.21l-1531.66 0.03c-72.16,0 -130.22,-58.06 -130.22,-130.22l-0.03 -428.74c0,-72.15 58.1,-130.22 130.25,-130.22l1531.66 0zm-3860.1 0c72.15,0 130.21,58.07 130.21,130.22l0 428.72c0,72.15 -58.06,130.21 -130.21,130.21l-1531.67 0.03c-72.15,0 -130.22,-58.06 -130.22,-130.22l0 -428.74c0,-72.15 58.07,-130.22 130.22,-130.22l1531.67 0zm-3859.94 0c72.16,0 130.22,58.07 130.22,130.22l0 428.72c0,72.15 -58.06,130.21 -130.22,130.21l-1531.69 0.03c-72.16,0 -130.22,-58.06 -130.22,-130.22l0 -428.74c0,-72.15 58.06,-130.22 130.22,-130.22l1531.69 0zm8685.05 827.1c72.15,0 130.22,58.06 130.22,130.22l0 428.87c0,72.16 -58.07,130.22 -130.22,130.22l-1531.67 0c-72.15,0 -130.22,-58.06 -130.22,-130.22l0 -428.87c0,-72.16 58.07,-130.22 130.22,-130.22l1531.67 0zm-3860.07 0c72.15,0 130.22,58.06 130.22,130.22l0 428.87c0,72.16 -58.07,130.22 -130.22,130.22l-1531.69 0c-72.16,0 -130.22,-58.06 -130.22,-130.22l0 -428.87c0,-72.16 58.06,-130.22 130.22,-130.22l1531.69 0zm-3859.97 0c72.16,0 130.22,58.06 130.22,130.22l0 428.87c0,72.16 -58.06,130.22 -130.22,130.22l-1531.66 0c-72.16,0 -130.36,-58.06 -130.36,-130.22l-0.03 -428.87c0,-72.16 58.21,-130.22 130.36,-130.22l1531.69 0zm8685.08 827.1c72.15,0 130.22,58.09 130.22,130.25l0 428.87c0,72.16 -58.07,130.22 -130.22,130.22l-1531.67 -0.02c-72.15,0 -130.21,-58.06 -130.21,-130.22l-0.03 -428.85c0,-72.16 58.06,-130.22 130.22,-130.22l1531.69 -0.02zm-1930.05 0c72.16,0 130.22,58.06 130.22,130.21l0 428.88c0,72.16 -58.06,130.22 -130.22,130.22l-1531.66 0c-72.16,0 -130.22,-58.06 -130.22,-130.22l-0.03 -428.85c0,-72.16 58.07,-130.22 130.22,-130.22l1531.69 -0.02zm-1930.05 0c72.16,0 130.22,58.06 130.22,130.21l0 428.88c0,72.16 -58.06,130.22 -130.22,130.22l-1531.66 0c-72.16,0 -130.22,-58.06 -130.22,-130.22l0 -428.85c0,-72.16 58.06,-130.22 130.22,-130.22l1531.66 -0.02zm-1930.04 0c72.15,0 130.21,58.06 130.21,130.21l0 428.88c0,72.16 -58.06,130.22 -130.21,130.22l-1531.67 0c-72.15,0 -130.22,-58.06 -130.22,-130.22l0 -428.85c0,-72.16 58.07,-130.22 130.22,-130.22l1531.67 -0.02zm-1929.91 0c72.15,0 130.22,58.06 130.22,130.21l0 428.88c0,72.16 -58.07,130.22 -130.22,130.22l-1531.67 0c-72.15,0 -130.35,-58.06 -130.35,-130.22l0 -428.85c0,-72.16 58.2,-130.22 130.35,-130.22l1531.67 -0.02zm-1930.03 0c72.16,0 130.22,58.06 130.22,130.21l0 428.88c0,72.16 -58.06,130.22 -130.22,130.22l-1531.69 0c-72.16,0 -130.22,-58.06 -130.22,-130.22l0 -428.85c0,-72.16 58.06,-130.22 130.22,-130.22l1531.69 -0.02zm8685.05 827.26c72.15,0 130.22,58.07 130.22,130.22l0 428.71c0,72.16 -58.07,130.22 -130.22,130.22l-1531.67 0.03c-72.15,0 -130.22,-58.07 -130.22,-130.22l0 -428.74c0,-72.15 58.07,-130.22 130.22,-130.22l1531.67 0zm-3860.07 0c72.15,0 130.22,58.07 130.22,130.22l0 428.71c0,72.16 -58.07,130.22 -130.22,130.22l-1531.69 0.03c-72.16,0 -130.22,-58.07 -130.22,-130.22l0 -428.74c0,-72.15 58.06,-130.22 130.22,-130.22l1531.69 0zm-1930.05 0c72.15,0 130.36,58.07 130.36,130.22l0 428.71c0,72.16 -58.21,130.22 -130.36,130.22l-1531.69 0.03c-72.16,0 -130.22,-58.07 -130.22,-130.22l0 -428.74c0,-72.15 58.06,-130.22 130.22,-130.22l1531.69 0zm-1929.91 0c72.16,0 130.22,58.07 130.22,130.22l0 428.71c0,72.16 -58.06,130.22 -130.22,130.22l-1531.66 0.03c-72.16,0 -130.36,-58.07 -130.36,-130.22l-0.03 -428.74c0,-72.15 58.21,-130.22 130.36,-130.22l1531.69 0zm8685.08 827.1c72.15,0 130.22,58.06 130.22,130.22l0 428.87c0,72.16 -58.07,130.22 -130.22,130.22l-1531.67 0c-72.15,0 -130.21,-58.06 -130.21,-130.22l0 -428.87c0,-72.16 58.06,-130.22 130.21,-130.22l1531.67 0zm-1930.05 0c72.16,0 130.22,58.06 130.22,130.22l0 428.87c0,72.16 -58.06,130.22 -130.22,130.22l-1531.66 0c-72.16,0 -130.22,-58.06 -130.22,-130.22l0 -428.87c0,-72.16 58.06,-130.22 130.22,-130.22l1531.66 0zm-3860.1 0c72.15,0 130.21,58.06 130.21,130.22l0 428.87c0,72.16 -58.06,130.22 -130.21,130.22l-1531.67 0c-72.15,0 -130.22,-58.06 -130.22,-130.22l0 -428.87c0,-72.16 58.07,-130.22 130.22,-130.22l1531.67 0zm-1929.91 0c72.15,0 130.22,58.06 130.22,130.22l0 428.87c0,72.16 -58.07,130.22 -130.22,130.22l-1531.67 0c-72.15,0 -130.35,-58.06 -130.35,-130.22l0 -428.87c0,-72.16 58.2,-130.22 130.35,-130.22l1531.67 0zm-1930.03 0c72.16,0 130.22,58.06 130.22,130.22l0 428.87c0,72.16 -58.06,130.22 -130.22,130.22l-1531.69 0c-72.16,0 -130.22,-58.06 -130.22,-130.22l0 -428.87c0,-72.16 58.06,-130.22 130.22,-130.22l1531.69 0zm8685.05 827.09c72.15,0 130.22,58.07 130.22,130.22l0 428.88c0,72.15 -58.07,130.22 -130.22,130.22l-1531.67 0c-72.15,0 -130.22,-58.07 -130.22,-130.22l0 -428.88c0,-72.15 58.07,-130.22 130.22,-130.22l1531.67 0zm-1930.05 0c72.16,0 130.22,58.07 130.22,130.22l0 428.88c0,72.15 -58.06,130.22 -130.22,130.22l-1531.66 0c-72.16,0 -130.22,-58.07 -130.22,-130.22l0 -428.88c0,-72.15 58.06,-130.22 130.22,-130.22l1531.66 0zm-1930.02 0c72.15,0 130.22,58.07 130.22,130.22l0 428.88c0,72.15 -58.07,130.22 -130.22,130.22l-1531.69 0c-72.16,0 -130.22,-58.07 -130.22,-130.22l0 -428.88c0,-72.15 58.06,-130.22 130.22,-130.22l1531.69 0zm-3859.97 0c72.16,0 130.22,58.07 130.22,130.22l0 428.88c0,72.15 -58.06,130.22 -130.22,130.22l-1531.66 0c-72.16,0 -130.36,-58.07 -130.36,-130.22l0 -428.88c0,-72.15 58.2,-130.22 130.36,-130.22l1531.66 0zm6755.02 827.24c72.16,0 130.22,58.06 130.22,130.22l0 428.71c0,72.16 -58.06,130.22 -130.22,130.22l-1531.66 0.02c-72.16,0 -130.22,-58.06 -130.22,-130.22l0 -428.71c0,-72.15 58.06,-130.22 130.22,-130.22l1531.66 -0.02zm-1930.05 0c72.16,0 130.22,58.06 130.22,130.22l0 428.71c0,72.16 -58.06,130.22 -130.22,130.22l-1531.66 0.02c-72.16,0 -130.22,-58.06 -130.22,-130.22l0 -428.71c0,-72.15 58.06,-130.22 130.22,-130.22l1531.66 -0.02zm-1930.04 0c72.15,0 130.21,58.06 130.21,130.22l0 428.71c0,72.16 -58.06,130.22 -130.21,130.22l-1531.67 0.02c-72.15,0 -130.22,-58.06 -130.22,-130.22l0 -428.71c0,-72.15 58.07,-130.22 130.22,-130.22l1531.67 -0.02zm-1929.91 0c72.15,0 130.22,58.06 130.22,130.22l0 428.71c0,72.16 -58.07,130.22 -130.22,130.22l-1531.67 0.02c-72.15,0 -130.35,-58.06 -130.35,-130.22l0 -428.71c0,-72.15 58.2,-130.22 130.35,-130.22l1531.67 -0.02zm-1930.03 0c72.16,0 130.22,58.06 130.22,130.22l0 428.71c0,72.16 -58.06,130.22 -130.22,130.22l-1531.69 0.02c-72.16,0 -130.22,-58.06 -130.22,-130.22l0 -428.71c0,-72.15 58.06,-130.22 130.22,-130.22l1531.69 -0.02zm9780.31 827.13l0 689.18 -689.19 -0.02c-76.37,0 -137.91,-61.4 -137.91,-137.77l0 -413.63c0,-76.37 61.54,-137.78 137.91,-137.78l689.19 0.03zm-1095.26 0c72.15,0 130.22,58.06 130.22,130.22l0 428.87c0,72.16 -58.07,130.22 -130.22,130.22l-1531.67 0c-72.15,0 -130.22,-58.06 -130.22,-130.22l0 -428.87c0,-72.16 58.07,-130.22 130.22,-130.22l1531.67 0zm-3860.07 0c72.15,0 130.22,58.06 130.22,130.22l0 428.87c0,72.16 -58.07,130.22 -130.22,130.22l-1531.69 0c-72.16,0 -130.22,-58.06 -130.22,-130.22l0 -428.87c0,-72.16 58.06,-130.22 130.22,-130.22l1531.69 0zm-3859.97 0c72.16,0 130.22,58.06 130.22,130.22l0 428.87c0,72.16 -58.06,130.22 -130.22,130.22l-1531.66 0c-72.16,0 -130.36,-58.06 -130.36,-130.22l0 -428.87c0,-72.16 58.2,-130.22 130.36,-130.22l1531.66 0zm-1930.05 0c72.16,0 130.22,58.06 130.22,130.22l0 428.87c0,72.16 -58.06,130.22 -130.22,130.22l-1531.66 0c-72.16,0 -130.22,-58.06 -130.22,-130.22l0 -7.69c0,76.37 61.54,137.77 137.91,137.77l689.19 -0.02 0 -689.19 834.78 0.03zm-1523.97 0c-76.37,0 -137.91,61.4 -137.91,137.77l0 -7.55c0,-72.16 58.06,-130.22 130.22,-130.22l7.69 0zm12139.1 827.09c72.15,0 130.22,58.07 130.22,130.22l0 428.88c0,72.15 -58.07,130.22 -130.22,130.22l-1531.67 0c-72.15,0 -130.21,-58.07 -130.21,-130.22l0 -428.88c0,-72.15 58.06,-130.22 130.21,-130.22l1531.67 0zm-1930.05 0c72.16,0 130.22,58.07 130.22,130.22l0 428.88c0,72.15 -58.06,130.22 -130.22,130.22l-1531.66 0c-72.16,0 -130.22,-58.07 -130.22,-130.22l0 -428.88c0,-72.15 58.06,-130.22 130.22,-130.22l1531.66 0zm-7720.04 0c72.16,0 130.22,58.07 130.22,130.22l0 428.88c0,72.15 -58.06,130.22 -130.22,130.22l-1531.69 0c-72.16,0 -130.22,-58.07 -130.22,-130.22l0 -428.88c0,-72.15 58.06,-130.22 130.22,-130.22l1531.69 0zm9780.31 827.24l0 689.18 -689.19 0c-76.37,0 -137.91,-61.4 -137.91,-137.77l0 -413.63c0,-76.37 61.54,-137.77 137.91,-137.77l689.19 0zm-1095.26 0c72.15,0 130.22,58.06 130.22,130.22l0 428.71c0,72.16 -58.07,130.22 -130.22,130.22l-1531.67 0.02c-72.15,0 -130.22,-58.06 -130.22,-130.22l0 -428.71c0,-72.16 58.07,-130.22 130.22,-130.22l1531.67 -0.02zm-5790.12 0c72.15,0 130.36,58.06 130.36,130.22l0 428.71c0,72.16 -58.21,130.22 -130.36,130.22l-1531.69 0.02c-72.16,0 -130.22,-58.06 -130.22,-130.22l0 -428.71c0,-72.16 58.06,-130.22 130.22,-130.22l1531.69 -0.02zm-1929.91 0c72.16,0 130.22,58.06 130.22,130.22l0 428.71c0,72.16 -58.06,130.22 -130.22,130.22l-1531.66 0.02c-72.16,0 -130.36,-58.06 -130.36,-130.22l0 -428.71c0,-72.16 58.2,-130.22 130.36,-130.22l1531.66 -0.02zm-1930.05 0c72.16,0 130.22,58.06 130.22,130.22l0 428.71c0,72.16 -58.06,130.22 -130.22,130.22l-834.78 0.02 0 -689.18 834.78 0zm-1523.97 0c-76.37,0 -137.91,61.4 -137.91,137.77l0 -7.55c0,-72.16 58.06,-130.22 130.22,-130.22l7.69 0zm-137.91 551.41c0,76.37 61.54,137.77 137.91,137.77l-7.69 0c-72.16,0 -130.22,-58.06 -130.22,-130.22l0 -7.55zm12277.01 275.69c72.15,0 130.22,58.07 130.22,130.22l0 428.88c0,72.15 -58.07,130.22 -130.22,130.22l-1531.67 0c-72.15,0 -130.21,-58.07 -130.21,-130.22l0 -428.88c0,-72.15 58.06,-130.22 130.21,-130.22l1531.67 0zm-1930.05 0c72.16,0 130.22,58.07 130.22,130.22l0 428.88c0,72.15 -58.06,130.22 -130.22,130.22l-1531.66 0c-72.16,0 -130.22,-58.07 -130.22,-130.22l0 -428.88c0,-72.15 58.06,-130.22 130.22,-130.22l1531.66 0zm-7720.04 0c72.16,0 130.22,58.07 130.22,130.22l0 428.88c0,72.15 -58.06,130.22 -130.22,130.22l-1531.69 0c-72.16,0 -130.22,-58.07 -130.22,-130.22l0 -428.88c0,-72.15 58.06,-130.22 130.22,-130.22l1531.69 0zm8685.05 827.1c72.15,0 130.22,58.2 130.22,130.36l0 428.71c0,72.15 -58.07,130.22 -130.22,130.22l-1531.67 0.02c-72.15,0 -130.22,-58.06 -130.22,-130.22l0 -428.71c0,-72.16 58.07,-130.36 130.22,-130.36l1531.67 -0.02zm-1930.05 0c72.16,0 130.22,58.2 130.22,130.36l0 428.71c0,72.15 -58.06,130.22 -130.22,130.22l-1531.66 0.02c-72.16,0 -130.22,-58.06 -130.22,-130.22l0 -428.71c0,-72.16 58.06,-130.36 130.22,-130.36l1531.66 -0.02z"/>
  <path id="rect120542-6-1-0-4_2" class="fil1" d="M33705.37 5441.33l-834.82 0.02c-72.15,0 -130.21,-58.07 -130.21,-130.22l0 -428.72c0,-72.15 58.06,-130.21 130.21,-130.21l834.82 -0.02 0 689.16zm-1233.21 -689.17c72.16,0 130.22,58.06 130.22,130.22l0 428.71c0,72.16 -58.06,130.22 -130.22,130.22l-1531.66 0.03c-72.16,0 -130.22,-58.07 -130.22,-130.22l0 -428.72c0,-72.15 58.06,-130.21 130.22,-130.21l1531.66 -0.03zm-1930.05 0c72.16,0 130.22,58.06 130.22,130.22l0 428.71c0,72.16 -58.06,130.22 -130.22,130.22l-1531.66 0.03c-72.16,0 -130.22,-58.07 -130.22,-130.22l0 -428.72c0,-72.15 58.06,-130.21 130.22,-130.21l1531.66 -0.03zm-1929.88 0c72.16,0 130.22,58.06 130.22,130.22l0 428.71c0,72.16 -58.06,130.22 -130.22,130.22l-1531.66 0.03c-72.16,0 -130.36,-58.07 -130.36,-130.22l0 -428.72c0,-72.15 58.2,-130.21 130.36,-130.21l1531.66 -0.03zm-1930.05 0c72.16,0 130.22,58.06 130.22,130.22l0 428.71c0,72.16 -58.06,130.22 -130.22,130.22l-1531.66 0.03c-72.16,0 -130.22,-58.07 -130.22,-130.22l0 -428.72c0,-72.15 58.06,-130.21 130.22,-130.21l1531.66 -0.03zm4824.97 827.1c72.16,0 130.22,58.06 130.22,130.22l0 428.87c0,72.16 -58.06,130.22 -130.22,130.22l-1531.66 0c-72.16,0 -130.22,-58.06 -130.22,-130.22l0 -428.87c0,-72.16 58.06,-130.22 130.22,-130.22l1531.66 0zm-3859.96 0c72.16,0 130.22,58.06 130.22,130.22l0 428.87c0,72.16 -58.06,130.22 -130.22,130.22l-1531.67 0c-72.15,0 -130.35,-58.06 -130.35,-130.22l0 -428.87c0,-72.16 58.2,-130.22 130.35,-130.22l1531.67 0zm-1930.05 0c72.16,0 130.22,58.06 130.22,130.22l0 428.87c0,72.16 -58.06,130.22 -130.22,130.22l-1531.66 0c-72.16,0 -130.22,-58.06 -130.22,-130.22l0 -7.69c0,76.37 61.54,137.77 137.91,137.77l689.18 0 0 -689.18 834.79 0zm-1523.97 0c-76.37,0 -137.91,61.4 -137.91,137.77l0 -7.55c0,-72.16 58.06,-130.22 130.22,-130.22l7.69 0zm12139.1 827.09c72.15,0 130.22,58.07 130.22,130.22l0 428.88c0,72.15 -58.07,130.22 -130.22,130.22l-1531.67 0c-72.15,0 -130.22,-58.07 -130.22,-130.22l0 -428.88c0,-72.15 58.07,-130.22 130.22,-130.22l1531.67 0zm-1930.05 0c72.16,0 130.22,58.07 130.22,130.22l0 428.88c0,72.15 -58.06,130.22 -130.22,130.22l-1531.67 0c-72.15,0 -130.21,-58.07 -130.21,-130.22l0 -428.88c0,-72.15 58.06,-130.22 130.21,-130.22l1531.67 0zm-7720.04 0c72.16,0 130.22,58.07 130.22,130.22l0 428.88c0,72.15 -58.06,130.22 -130.22,130.22l-1531.66 0c-72.16,0 -130.22,-58.07 -130.22,-130.22l0 -428.88c0,-72.15 58.06,-130.22 130.22,-130.22l1531.66 0zm8685.08 827.26c72.16,0 130.22,58.06 130.22,130.22l0 428.71c0,72.16 -58.06,130.22 -130.22,130.22l-1531.66 0c-72.16,0 -130.22,-58.06 -130.22,-130.22l-0.03 -428.71c0,-72.16 58.07,-130.22 130.22,-130.22l1531.69 0zm-5790.15 0c72.15,0 130.36,58.06 130.36,130.22l0 428.71c0,72.16 -58.21,130.22 -130.36,130.22l-1531.67 0c-72.15,0 -130.22,-58.06 -130.22,-130.22l0 -428.71c0,-72.16 58.07,-130.22 130.22,-130.22l1531.67 0zm-1929.91 0c72.16,0 130.22,58.06 130.22,130.22l0 428.71c0,72.16 -58.06,130.22 -130.22,130.22l-1531.67 0c-72.15,0 -130.35,-58.06 -130.35,-130.22l0 -428.71c0,-72.16 58.2,-130.22 130.35,-130.22l1531.67 0zm-1930.05 0c72.16,0 130.22,58.06 130.22,130.22l0 428.71c0,72.16 -58.06,130.22 -130.22,130.22l-834.79 0 0 -689.18 834.79 0.02zm-1523.97 0c-76.37,0 -137.91,61.4 -137.91,137.77l0 -7.55c0,-72.16 58.06,-130.22 130.22,-130.22l7.69 0zm-137.91 551.38c0,76.37 61.54,137.77 137.91,137.77l-7.69 0c-72.16,0 -130.22,-58.06 -130.22,-130.22l0 -7.55zm12277.01 275.72c72.15,0 130.22,58.06 130.22,130.22l0 428.87c0,72.16 -58.07,130.22 -130.22,130.22l-1531.67 0c-72.15,0 -130.22,-58.06 -130.22,-130.22l0 -428.87c0,-72.16 58.07,-130.22 130.22,-130.22l1531.67 0zm-1930.05 0c72.16,0 130.22,58.06 130.22,130.22l0 428.87c0,72.16 -58.06,130.22 -130.22,130.22l-1531.67 0c-72.15,0 -130.21,-58.06 -130.21,-130.22l0 -428.87c0,-72.16 58.06,-130.22 130.21,-130.22l1531.67 0zm-7720.04 0c72.16,0 130.22,58.06 130.22,130.22l0 428.87c0,72.16 -58.06,130.22 -130.22,130.22l-1531.66 0c-72.16,0 -130.22,-58.06 -130.22,-130.22l-0.02 -428.87c0,-72.16 58.06,-130.22 130.21,-130.22l1531.69 0zm8685.08 827.09c72.16,0 130.22,58.2 130.22,130.36l0 428.71c0,72.16 -58.06,130.22 -130.22,130.22l-1531.66 0.02c-72.16,0 -130.22,-58.06 -130.22,-130.21l0 -428.72c0,-72.15 58.06,-130.35 130.22,-130.35l1531.66 -0.03zm-1930.05 0c72.16,0 130.22,58.2 130.22,130.36l0 428.71c0,72.16 -58.06,130.22 -130.22,130.22l-1531.66 0.02c-72.16,0 -130.22,-58.06 -130.22,-130.21l0 -428.72c0,-72.15 58.06,-130.35 130.22,-130.35l1531.66 -0.03z"/>
 </g>
 <g id="board">
  <metadata id="CorelCorpID_1Corel-Layer"/>
  <rect id="board_3" class="fil3" x="19107.71" y="2753.95" width="15461.95" height="9954.87"/>
  <polygon id="board_4" class="fil4" points="21086.62,2753.95 24002.36,2753.95 24002.36,12708.83 21086.62,12708.83 "/>
  <rect id="board_5" class="fil4" x="19107.71" y="2868.47" width="15334.31" height="9840.36"/>
  <polygon id="board_6" class="fil5" points="21086.62,2868.47 24002.36,2868.47 24002.36,12708.83 21086.62,12708.83 "/>
  <polygon id="board_7" class="fil4" points="24002.36,3128.69 24002.36,12334.1 21086.62,12334.1 21086.62,3128.69 "/>
  <rect id="board_8" class="fil6" x="19461.75" y="3128.69" width="14753.88" height="9205.41"/>
  <rect id="board_shadow" class="fil7" x="19890.79" y="3283.11" width="14184.8" height="8738.92"/>
  <polygon id="board_shadow_9" class="fil6" points="21086.62,3283.1 24002.36,3283.1 24002.36,12022.03 21086.62,12022.03 "/>
  <rect class="fil3" x="18597.26" y="12182.12" width="16482.87" height="915.38"/>
  <polygon class="fil8" points="21086.62,12182.12 24002.36,12182.12 24002.36,13097.51 21086.62,13097.51 "/>
  <rect class="fil4" x="18597.26" y="12274.03" width="16384.88" height="823.47"/>
  <polygon class="fil5" points="21086.62,12274.03 24002.36,12274.03 24002.36,13097.51 21086.62,13097.51 "/>
 </g>
 <g id="screen">
  <metadata id="CorelCorpID_2Corel-Layer"/>
  <rect id="board_10" class="fil9" x="-0.01" y="0" width="23481.04" height="14744.28"/>
  <rect id="board_11" class="fil10" x="-0.01" y="0" width="23237.75" height="14476.94"/>
  <rect id="board_12" class="fil11" x="682.81" y="760.28" width="22115.4" height="13223.72"/>
 </g>
</svg>
