<?xml version="1.0" encoding="UTF-8"?>
<!DOCTYPE svg PUBLIC "-//W3C//DTD SVG 1.1//EN" "http://www.w3.org/Graphics/SVG/1.1/DTD/svg11.dtd">
<!-- Creator: CorelDRAW 2021.5 -->
<svg xmlns="http://www.w3.org/2000/svg" xml:space="preserve" width="54.6861mm" height="68.9871mm" version="1.1" style="shape-rendering:geometricPrecision; text-rendering:geometricPrecision; image-rendering:optimizeQuality; fill-rule:evenodd; clip-rule:evenodd"
viewBox="0 0 889.61 1122.25"
 xmlns:xlink="http://www.w3.org/1999/xlink"
 xmlns:xodm="http://www.corel.com/coreldraw/odm/2003">
 <defs>
  <style type="text/css">
   <![CDATA[
    .fil1 {fill:#3E434F}
    .fil2 {fill:#767C7E}
    .fil0 {fill:#E7ECE9}
   ]]>
  </style>
 </defs>
 <g id="remote">
  <metadata id="CorelCorpID_0Corel-Layer"/>
  <path class="fil0" d="M206.45 0l496.67 0c44.74,0 83.9,27.36 87.09,61.44l99.39 1060.81 -889.61 0 118.26 -1060.81c3.8,-34.08 43.45,-61.44 88.19,-61.44z"/>
  <path class="fil1" d="M206.45 0l241.42 0 0 1122.25 -447.87 0 118.26 -1060.81c3.8,-34.08 43.45,-61.44 88.19,-61.44z"/>
  <path class="fil2" d="M239.31 0l434.59 0c39.14,0 73.41,27.36 76.21,61.44l86.97 1060.81 -778.41 0 103.48 -1060.81c3.32,-34.08 38.02,-61.44 77.16,-61.44z"/>
 </g>
</svg>
